<?xml version="1.0" encoding="UTF-8"?>
<svg data-bbox="0.742 0 50.852 58.242" xmlns="http://www.w3.org/2000/svg" viewBox="0 0 52 59" height="59" width="52" data-type="color">
    <g>
        <path fill="#03D1B8" d="M43.745 43.146H22.363l25.956-26.592c2.655-3.13 2.82-7.03 1.042-10.689C47.565 2.175 44.317.037 40.45 0H9.28C7.095 0 5.098.807 3.655 2.265c-1.394 1.41-2.152 3.317-2.131 5.363.043 4.242 3.413 7.452 7.847 7.468h19.54L2.956 41.687c-2.655 3.13-2.82 7.03-1.042 10.69 1.795 3.69 5.043 5.827 8.91 5.865h33.012c2.185 0 4.183-.807 5.625-2.265 1.394-1.41 2.153-3.318 2.132-5.363-.043-4.242-3.414-7.452-7.848-7.468ZM9.377 11.549c-2.473-.005-4.278-1.667-4.305-3.953-.01-1.09.38-2.1 1.106-2.831.769-.78 1.875-1.207 3.103-1.213h31.148c2.5.032 4.54 1.4 5.737 3.868 1.186 2.436 1.165 4.786-.63 6.923-.272.31-1.25 1.34-2.73 2.89a7.566 7.566 0 0 0-2.083-3.569c-1.453-1.405-3.275-2.099-5.117-2.11v-.01H9.376v.005ZM5.103 50.827c-1.186-2.436-1.165-4.786.63-6.923.273-.31 26.683-27.393 26.683-27.393 1.741-1.752 4.193-1.874 5.833-.288.785.759 1.223 1.747 1.24 2.772.015 1.095-.455 2.185-1.315 3.056-1.33 1.378-21.928 22.28-22.916 23.28l-.08.08c-1.395 1.41-2.153 3.317-2.132 5.363a7.478 7.478 0 0 0 1.127 3.915h-3.328c-2.5-.032-4.54-1.4-5.737-3.867l-.005.005Zm41.826 2.655c-.769.78-1.875 1.207-3.103 1.213H20.893c-2.473-.006-4.279-1.667-4.305-3.953-.01-1.09.38-2.1 1.106-2.831.769-.78 1.875-1.208 3.103-1.213H43.73c2.473.005 4.278 1.667 4.305 3.953.01 1.09-.38 2.1-1.106 2.831Z" data-color="1"/>
    </g>
</svg>
